<svg xmlns="http://www.w3.org/2000/svg" id="Layer_1" viewBox="0 0 331.09 81.77"><defs><style>.cls-1{fill:#231f20;}.cls-2{isolation:isolate;opacity:.7;}.cls-3{fill:none;stroke:#000;stroke-miterlimit:10;}.cls-4{fill-rule:evenodd;}</style></defs><g id="Layer_1-2"><g><polygon class="cls-4" points="22.84 0 0 46.69 12.3 46.69 22.84 25.08 33.37 46.69 45.67 46.69 22.84 0 22.84 0"></polygon><polygon class="cls-4" points="41.21 12.62 45.5 21.4 45.5 21.4 53.44 37.62 57.87 46.69 61.3 46.69 70.17 46.69 65.73 37.62 57.75 21.3 52.88 11.35 52.88 11.35 47.34 0 41.79 11.34 41.21 12.62 41.21 12.62"></polygon><polygon class="cls-4" points="65.7 12.62 69.86 21.13 69.86 21.13 82.37 46.69 94.67 46.69 77.38 11.35 77.38 11.35 71.83 0 66.29 11.34 65.7 12.62 65.7 12.62"></polygon></g><g><path class="cls-1" d="m.54,81.48v-17.24h1.39v17.24H.54Z"></path><path class="cls-1" d="m12.18,68.6l-.5-.77c.05.48.05.89.05,1.29v12.35h-1.36v-17.52h.02l7.52,10.51,7.54-10.51h.02v17.52h-1.36v-12.35c0-.41,0-.81.02-1.29-.31.55-.91,1.36-1.36,2.04l-4.86,6.75-5.72-8.02h0Z"></path><path class="cls-1" d="m35.71,68.6l-.5-.77c.05.48.05.89.05,1.29v12.35h-1.36v-17.52h.02l7.52,10.51,7.54-10.51h.02v17.52h-1.36v-12.35c0-.41,0-.81.02-1.29-.31.55-.91,1.36-1.36,2.04l-4.86,6.75-5.72-8.02h0Z"></path><path class="cls-1" d="m57.42,81.48v-17.24h1.39v17.24h-1.39Z"></path><path class="cls-1" d="m74.88,81.76c-5.12,0-8.95-3.9-8.95-8.91s3.83-8.91,8.98-8.91c2.39,0,4.24.74,5.29,1.32v1.36c-1.36-.69-3.16-1.39-5.29-1.39-4.48,0-7.57,3.35-7.57,7.61s3.11,7.61,7.54,7.61c1.51,0,3.04-.33,4.17-.81v-5.6h1.34v6.39c-1.29.69-3.21,1.32-5.51,1.32h0Z"></path><path class="cls-1" d="m92.98,64.24c3.54,0,5.7,1.89,5.7,5,0,2.61-1.58,4.33-4,4.81l4.17,7.42h-1.53l-4.02-7.25h-4.26v7.25h-1.39v-17.24h5.34,0Zm-3.95,1.18v7.66h3.95c2.71,0,4.29-1.46,4.29-3.83s-1.6-3.83-4.33-3.83h-3.91Z"></path><path class="cls-1" d="m111.17,63.95h.05l7.71,17.52h-1.46l-1.96-4.48h-8.67l-1.94,4.48h-1.48l7.76-17.52h-.01Zm3.83,11.87c-1.32-3.02-2.56-5.89-3.81-8.88-1.27,2.99-2.54,5.87-3.85,8.88h7.66Z"></path><path class="cls-1" d="m128.03,65.41v16.06h-1.36v-16.06h-5.36v-1.17h12.11v1.17h-5.39Z"></path><path class="cls-1" d="m139.71,81.48v-17.24h1.39v17.24h-1.39Z"></path><path class="cls-1" d="m156.93,63.95c4.96,0,8.71,3.97,8.71,8.91s-3.73,8.91-8.71,8.91-8.71-3.93-8.71-8.91,3.73-8.91,8.71-8.91Zm0,16.52c4.29,0,7.28-3.33,7.28-7.61s-2.99-7.61-7.28-7.61-7.3,3.35-7.3,7.61,3.04,7.61,7.3,7.61Z"></path><path class="cls-1" d="m174.57,68.14c-.17-.19-.38-.43-.48-.6.02.29.05.65.05,1.1v12.83h-1.39v-17.52h.02l11.25,13.62c.17.22.38.46.48.6-.02-.26-.02-.65-.02-1.1v-12.81h1.37v17.5h-.02l-11.25-13.62h0Z"></path><path class="cls-1" d="m202.13,81.48v-17.24h1.39v16.06h7.76v1.17h-9.15Z"></path><path class="cls-1" d="m223.03,63.95h.05l7.71,17.52h-1.46l-1.96-4.48h-8.67l-1.94,4.48h-1.48l7.76-17.52h0Zm3.83,11.87c-1.32-3.02-2.56-5.89-3.81-8.88-1.27,2.99-2.54,5.87-3.85,8.88h7.66Z"></path><path class="cls-1" d="m234.64,64.24l3.64,10.2,1.29,3.66c.41-1.15.84-2.32,1.32-3.59l3.64-10.03h.05l3.66,10.03,1.32,3.59c.38-1.15.81-2.39,1.27-3.66l3.64-10.2h1.48l-6.39,17.52h-.05l-2.61-7.09-2.35-6.51c-.77,2.16-1.56,4.36-2.35,6.51l-2.61,7.09h-.05l-6.39-17.52h1.49Z"></path><path class="cls-1" d="m271.54,65.41v6.8h7.01v1.17h-7.01v8.09h-1.39v-17.24h9.72v1.17h-8.33Z"></path><path class="cls-1" d="m286.69,81.48v-17.24h1.39v17.24h-1.39Z"></path><path class="cls-1" d="m301.85,64.24c3.54,0,5.7,1.89,5.7,5,0,2.61-1.58,4.33-4,4.81l4.17,7.42h-1.53l-4.02-7.25h-4.26v7.25h-1.39v-17.24h5.34-.01Zm-3.95,1.18v7.66h3.95c2.71,0,4.29-1.46,4.29-3.83s-1.6-3.83-4.33-3.83h-3.91Z"></path><path class="cls-1" d="m316.47,68.6l-.5-.77c.05.48.05.89.05,1.29v12.35h-1.36v-17.52h.02l7.52,10.51,7.54-10.51h.02v17.52h-1.36v-12.35c0-.41,0-.81.02-1.29-.31.55-.91,1.36-1.36,2.04l-4.86,6.75-5.72-8.02h-.01Z"></path></g><line class="cls-3" y1="54.9" x2="329.76" y2="54.9"></line></g><g id="Layer_2"><g><path d="m117.93.37c13.4,0,23.28,10.25,23.28,23.1s-9.82,23.09-23.28,23.09-23.28-10.13-23.28-23.09S104.47.37,117.93.37Zm0,37.48c8.03,0,13.71-6.42,13.71-14.39s-5.68-14.39-13.71-14.39-13.71,6.48-13.71,14.39,5.68,14.39,13.71,14.39Z"></path><path d="m168.25,9.2v36.49h-9.51V9.2h-12.41V1.23h34.4v7.97h-12.48Z"></path><path d="m188.63,45.69V1.23h9.51v44.46h-9.51Z"></path><path d="m226.91,46.37h-.37L204.62,1.23h10.37l5.8,12.84c2.29,5.13,4.32,9.51,5.87,13.83,1.3-3.15,4.01-9.45,5.99-13.83l5.8-12.84h10.31l-21.86,45.14h0Z"></path><path class="cls-2" d="m291.87,29.51c0,10.37-6.85,17.04-18.59,17.04s-18.59-6.67-18.59-17.04V1.23h9.51v27.36c0,5.8,3.27,9.26,9.08,9.26s9.08-3.46,9.08-9.26V1.23h9.51v28.28Z"></path><path class="cls-2" d="m301.32,44.03v-9.14c3.09,1.61,7.16,2.96,11.18,3.21,1.42.06,2.78,0,3.95-.25,3.4-.49,5.37-1.79,5.37-3.95,0-2.96-2.66-4.51-8.77-6.73-7.78-2.84-12.35-6.11-12.35-13.83s6.55-12.97,16.12-12.97c4.45,0,8.83.99,11.61,2.22v8.77c-2.59-1.54-6.79-2.72-10.87-2.72-4.57,0-7.53,1.79-7.53,4.63,0,2.59,2.41,4.38,8.46,6.67,7.78,3.03,12.6,6.3,12.6,13.77,0,8.03-6.05,12.84-16.55,12.84-5.06,0-10-1.11-13.21-2.53h-.01Z"></path></g></g></svg>